<svg width="162" height="20" viewBox="0 0 162 20" fill="none" xmlns="http://www.w3.org/2000/svg">
<path d="M21.998 7.06152C19.9554 6.55697 18.0063 6.30469 16.1509 6.30469C13.1642 6.30469 11.2681 7.11035 10.4624 8.72168C10.2183 9.20996 10.0962 9.76742 10.0962 10.394C10.0962 11.7612 10.4583 12.8029 11.1826 13.519C11.9069 14.2352 12.8916 14.5933 14.1367 14.5933C14.9424 14.5933 15.6138 14.4305 16.1509 14.105C16.6961 13.7795 17.0949 13.3726 17.3472 12.8843H14.4419L14.6006 9.35645C14.6657 9.36458 16.1427 9.38493 19.0317 9.41748C21.9289 9.44189 23.471 9.47445 23.6582 9.51514V19L21.3633 19.1221L20.9971 16.6318C20.2891 17.5026 19.105 18.2065 17.4448 18.7437C15.7847 19.2808 14.2425 19.5493 12.8184 19.5493C11.3942 19.5493 10.0881 19.4395 8.8999 19.2197C7.71175 19 6.60498 18.6541 5.57959 18.1821C4.5542 17.702 3.66715 17.1201 2.91846 16.4365C2.1779 15.7448 1.59603 14.8984 1.17285 13.8975C0.749674 12.8965 0.538086 11.7409 0.538086 10.4307C0.538086 9.12044 0.806641 7.90788 1.34375 6.79297C1.88086 5.67806 2.60514 4.75846 3.5166 4.03418C6.11263 1.95898 9.99854 0.921387 15.1743 0.921387C16.0451 0.921387 17.1966 0.998698 18.6289 1.15332C20.0693 1.2998 21.1924 1.47477 21.998 1.67822V7.06152ZM41.2241 14.5933C42.6564 14.5933 43.751 14.2067 44.5078 13.4336C45.2728 12.6605 45.6553 11.5171 45.6553 10.0034C45.6553 8.48161 45.2687 7.4318 44.4956 6.854C43.7225 6.2762 42.6564 5.9873 41.2974 5.9873C39.9383 5.9873 38.86 6.36572 38.0625 7.12256C37.2731 7.87126 36.8784 8.96175 36.8784 10.394C36.8784 13.1935 38.327 14.5933 41.2241 14.5933ZM27.1006 10.5894C27.1006 7.48063 28.3579 5.09212 30.8726 3.42383C33.3953 1.75553 36.8866 0.921387 41.3462 0.921387C45.8058 0.921387 49.2523 1.6945 51.6855 3.24072C54.1188 4.78695 55.3354 6.97607 55.3354 9.80811C55.3354 12.8761 54.0456 15.2687 51.4658 16.9858C48.8861 18.6948 45.3623 19.5493 40.8945 19.5493C36.4268 19.5493 33.0088 18.7559 30.6406 17.1689C28.2806 15.5739 27.1006 13.3807 27.1006 10.5894ZM79.2124 19.0732H62.0371C60.6781 19.0732 59.6445 19.0488 58.9365 19L58.9854 16.0337L59.083 12.042C59.0993 11.8141 59.1685 10.2394 59.2905 7.31787C59.4207 4.38818 59.5184 2.4432 59.5835 1.48291C60.8123 1.34456 62.3341 1.27539 64.1489 1.27539C65.9718 1.27539 67.4774 1.28353 68.6655 1.2998L68.3848 7.40332C68.3685 8.20898 68.2668 10.6097 68.0796 14.6055L77.4912 14.3857C78.4352 14.3857 79.2043 14.4305 79.7983 14.52C79.7983 15.0409 79.7332 15.7204 79.603 16.5586L79.2124 19.0732ZM104.383 19.1099H96.6074L82.6548 19.0122L82.8623 14.7153C83.2773 6.09717 83.4849 1.67822 83.4849 1.4585C84.4614 1.41781 85.1003 1.39746 85.4014 1.39746H97.7549C100.497 1.39746 102.715 1.38118 104.408 1.34863L103.907 5.95068C101.938 6.12972 98.0153 6.21924 92.1396 6.21924C92.1152 6.41455 92.0868 6.74414 92.0542 7.20801C92.0298 7.67188 92.0094 8.02181 91.9932 8.25781C94.3369 8.21712 95.9727 8.19678 96.9004 8.19678L99.5859 8.27002C99.5859 8.62809 99.529 9.24658 99.415 10.1255C99.3092 11.0044 99.1912 11.6839 99.061 12.1641C98.9308 12.1966 97.9176 12.2129 96.0215 12.2129H91.8345L91.7002 14.5933L104.518 14.7397C104.518 16.2778 104.493 17.3765 104.444 18.0356C104.404 18.6867 104.383 19.0448 104.383 19.1099ZM131.812 3.76562V3.729C131.812 3.729 131.829 3.74121 131.861 3.76562H131.812ZM115.992 1.2998H117.176C117.274 1.91016 117.323 2.60596 117.323 3.38721C117.323 4.16846 117.29 5.08398 117.225 6.13379C117.16 7.18359 117.123 7.84684 117.115 8.12354L122.181 1.72705L122.975 0.799316C125.807 1.81657 128.753 2.80127 131.812 3.75342V3.83887C130.836 4.88053 129.652 6.09717 128.26 7.48877C126.869 8.88037 125.949 9.80404 125.501 10.2598L133.509 16.5342L126.734 19.3296L125.44 19.9888L123.329 18.2554C122.271 17.3683 121.066 16.3145 119.715 15.0938C118.373 13.873 117.461 13.0104 116.981 12.5059L116.786 18.0723V18.9268C112.554 19.057 109.555 19.1221 107.789 19.1221C107.74 18.4222 107.716 17.8647 107.716 17.4497C107.716 17.4497 107.797 14.756 107.96 9.36865C108.131 5.71468 108.216 3.59473 108.216 3.00879C108.216 2.42285 108.241 1.94271 108.29 1.56836C108.656 1.51953 109.783 1.46257 111.671 1.39746C113.559 1.33236 114.999 1.2998 115.992 1.2998ZM135.719 8.17236C137.241 8.1154 141.456 8.00146 148.365 7.83057V8.24561C148.365 8.44906 148.308 9.12858 148.194 10.2842C148.08 11.4398 147.991 12.1559 147.926 12.4326C142.88 12.5303 139.181 12.5791 136.83 12.5791H134.95L135.719 8.17236ZM159.352 1.33643L161.476 1.31201C161.508 1.51546 161.524 1.73112 161.524 1.95898L161.463 3.59473L161.134 18.8779L158.802 18.939C158.802 18.939 156.674 18.9593 152.418 19C152.394 18.764 152.381 18.4629 152.381 18.0967C152.381 18.0967 152.52 12.5628 152.796 1.49512C154.595 1.38932 156.78 1.33643 159.352 1.33643Z" fill="#F9DD00"/>
</svg>
