<svg width="40" height="40" viewBox="0 0 40 40" fill="none" xmlns="http://www.w3.org/2000/svg">
<path d="M31.3156 24.5938H32.8906C33.9869 24.7375 31.8375 25.8188 31.8375 25.8188C31.8375 25.8188 30.7844 25.0444 30.7844 24.81C30.785 24.5756 31.3156 24.5938 31.3156 24.5938ZM23.2713 31.9744C23.5625 32.1425 23.8525 32.5213 23.915 32.8156L24.0338 33.3744C24.0963 33.6694 24.0281 34.0169 23.8831 34.1469C23.7381 34.2775 23.5425 34.1469 23.4494 33.8588L22.9119 32.1956C22.8175 31.9056 22.98 31.8056 23.2713 31.9744ZM15.6981 31.3394C15.9888 31.5088 16.2794 31.8863 16.3413 32.1819L16.4606 32.7394C16.5231 33.0344 16.4544 33.3819 16.3094 33.5131C16.1644 33.6431 15.9688 33.5138 15.875 33.2238L15.3381 31.5619C15.2456 31.2706 15.4075 31.1713 15.6981 31.3394Z" fill="#F9DD00"/>
<path d="M7.10938 27.2237C7.94533 27.222 8.77206 27.3984 9.53445 27.7414C10.2968 28.0843 10.9773 28.5858 11.5306 29.2125L11.9344 29.0337C11.805 28.9156 11.6656 28.7931 11.5037 28.665C11.2475 28.4637 11.15 28.235 11.145 28.0081L3.37875 24.3312C3.35791 23.8428 3.4894 23.3599 3.755 22.9494C2.67437 21.5919 2.65625 19.9731 2.65625 19.8844V18.9625H3.59375C4.9875 18.9625 6.07938 18.9925 7.43438 19.3831C8.36063 19.6506 9.02 19.9381 9.50813 20.2494C9.37 19.6156 9.45687 18.8806 9.99875 18.0981C9.99875 18.0981 13.5669 14.3756 17.6694 13.2238C16.4412 12.2475 16.0363 11.1694 16.0363 8.92062C16.0363 4.69062 19.5344 1.25 23.8344 1.25C28.1337 1.25 31.6319 4.69063 31.6319 8.92C31.6319 9.22625 31.6119 9.49813 31.5775 9.74625L31.5881 9.75C32.3369 10.0175 30.9444 13.8588 30.1456 13.8975C29.0006 16.5825 27.2956 17.1912 25.9906 17.1912C25.3225 17.1912 24.6125 17.015 23.9163 16.6963L23.7025 19.2219L24.9731 19.8956L25.0319 19.8431L25.915 19.0506L26.1837 18.8088H26.5469C29.3837 18.8088 32.0431 20.1763 33.6613 22.4656L33.7894 22.6456C34.5506 23.7125 35.0394 24.4675 34.9025 25.2081C34.8419 25.5338 34.6581 25.8144 34.3837 25.9975C34.1331 26.1663 33.7775 26.4012 33.3725 26.6687C34.6925 26.7619 35.9523 27.2575 36.9819 28.0888L36.1156 28.1775C37.7025 29.2075 38.75 30.9769 38.75 32.9869C38.75 36.1706 36.1269 38.75 32.8906 38.75C30.3413 38.75 28.1788 37.1469 27.3725 34.9106L27.3713 34.9662C27.3734 35.1919 27.3306 35.4158 27.2454 35.6248C27.1601 35.8338 27.0342 36.0237 26.8748 36.1835C26.7154 36.3433 26.5258 36.4698 26.317 36.5556C26.1082 36.6414 25.8845 36.6847 25.6588 36.6831C25.6044 36.6831 25.5488 36.6813 25.4919 36.6756L25.4681 36.6744L25.4444 36.6706L13.9656 35.105L13.0731 34.9837L13.1612 34.1025C13.17 34.0181 13.1712 33.9338 13.1737 33.8488C13.1762 33.7085 13.1839 33.5684 13.1969 33.4287C13.2355 33.0271 13.2483 32.6233 13.235 32.22L12.9312 32.3456C12.9557 32.5583 12.9684 32.7722 12.9694 32.9862C12.9694 36.17 10.3463 38.7494 7.11 38.7494C3.87375 38.7494 1.25 36.1706 1.25 32.9869C1.25 29.8031 3.87312 27.2237 7.10938 27.2237ZM11.9569 24.2313C9.08688 22.8019 11.2113 21.4331 7.17062 20.2675C5.92937 19.91 4.93312 19.8844 3.59375 19.8844C3.59375 19.8844 3.59375 22.2256 5.60313 23.3063C9.68875 25.5037 12.9688 25.7025 12.9688 25.7025C12.9688 25.7025 13.0056 24.7531 11.9569 24.2313ZM16.1244 27.7262C15.7578 28.0375 15.4984 28.4562 15.3831 28.9231C16.1594 29.0513 16.5425 29.5738 16.7831 29.9031C16.7906 29.9144 16.7956 29.9188 16.8025 29.9288L16.1244 27.7262ZM24.1362 15.4369C24.7688 15.7794 25.4094 15.9613 25.9913 15.9613C27.4763 15.9613 28.4006 14.7738 28.9706 13.47C26.6513 12.4931 23.8119 10.9012 22.6881 9.73312C22.5766 9.76677 22.4609 9.78465 22.3444 9.78625C21.6556 9.78625 21.0981 9.23687 21.0981 8.56062C21.0981 7.88375 21.6562 7.335 22.3444 7.335C22.9244 7.335 23.4069 7.72563 23.5462 8.25375C25.2194 8.17 28.1144 8.69875 30.3631 9.35625C30.376 9.2114 30.3825 9.06605 30.3825 8.92062C30.3825 5.36937 27.445 2.48 23.835 2.48C20.2244 2.48 17.2869 5.36937 17.2869 8.92062C17.2869 11.8469 17.785 12.1063 21.6613 14.1269C22.4901 14.5563 23.3151 14.993 24.1362 15.4369ZM24.7669 23.21C24.7106 23.0713 24.6819 22.9363 24.6713 22.7994L20.8775 21.0931C20.6747 20.9855 20.5131 20.814 20.4178 20.6051C20.3226 20.3963 20.2989 20.1618 20.3506 19.9381H20.3444L20.435 18.875L17.8494 21.1344C17.93 21.1231 18.0094 21.1063 18.0912 21.1063C18.2487 21.1063 18.4025 21.1269 18.5475 21.1687C19.1812 21.3494 20.0962 21.7025 20.9819 22.0438C21.4719 22.2331 21.935 22.4112 22.2781 22.5319C23.0275 22.7931 23.5138 23.3925 23.5138 24.0569V24.1744C24.0855 24.0446 24.6598 23.9262 25.2362 23.8194C25.0219 23.6513 24.8694 23.46 24.7669 23.21ZM18.7537 22.2019L19.4038 24.7531L20.51 25.0131C21.1909 24.7829 21.8804 24.5788 22.5769 24.4012V24.0563C22.5769 23.765 22.2887 23.5125 21.9638 23.3988C21.1456 23.1125 19.7362 22.5337 18.7537 22.2019ZM27.7019 20.575L27.2375 20.3806C27.1488 20.3425 27.0575 20.3256 26.9669 20.3256C26.7087 20.3256 26.465 20.4694 26.3575 20.7125L25.9569 21.6331C25.3612 22.9975 25.3612 22.9975 27.1912 23.7638C27.4419 23.8694 27.66 23.9119 27.8494 23.9119C28.5956 23.9119 28.8875 23.2431 28.95 23.0988C29.4319 21.9988 28.7156 21.445 28.1156 21.1438C28.1006 20.9044 27.9481 20.6775 27.7019 20.575ZM29.9606 32.9869C29.9606 33.1194 29.9825 33.2456 30 33.3737L28.8044 33.295C28.8426 33.7933 28.9752 34.2799 29.195 34.7288L30.1812 34.0794C30.2844 34.3181 30.4196 34.5416 30.5831 34.7438L29.5062 35.265C29.7949 35.6781 30.1572 36.0345 30.575 36.3162L31.1044 35.2569C31.3019 35.4129 31.519 35.5425 31.75 35.6425L31.0806 36.6031C31.5496 36.8305 32.0572 36.9672 32.5769 37.0062L32.4969 35.83C32.6269 35.8475 32.7556 35.8688 32.89 35.8688C33.0144 35.8688 33.1325 35.8481 33.2531 35.8331L33.1612 37.0081C33.6813 36.975 34.1904 36.8439 34.6619 36.6219L34.0013 35.6512C34.2432 35.5509 34.4705 35.4182 34.6769 35.2569L35.2062 36.3162C35.6239 36.0343 35.9862 35.678 36.275 35.265L35.1981 34.7444C35.3615 34.5421 35.4967 34.3186 35.6 34.08L36.5863 34.7294C36.8061 34.2805 36.9386 33.794 36.9769 33.2956L35.7812 33.3744C35.7987 33.2462 35.8206 33.12 35.8206 32.9875C35.8206 32.8644 35.7988 32.7481 35.7838 32.63L36.9787 32.7206C36.9451 32.2083 36.8118 31.7075 36.5863 31.2463L35.6 31.8956C35.5031 31.6637 35.3706 31.4519 35.2188 31.255L36.3 30.7437C36.0077 30.3159 35.6368 29.9474 35.2069 29.6581L34.6769 30.7175C34.4707 30.5555 34.2434 30.4224 34.0013 30.3219L34.6619 29.3513C34.2036 29.1345 33.7093 29.0044 33.2038 28.9675L33.2837 30.1437C33.1537 30.1269 33.025 30.1044 32.8906 30.1044C32.7562 30.1044 32.6275 30.1262 32.4975 30.1437L32.5769 28.9675C32.179 28.9977 31.7876 29.0855 31.415 29.2281L32.4519 31.3181C32.5948 31.2796 32.742 31.259 32.89 31.2569C33.8612 31.2569 34.6481 32.0306 34.6481 32.9869C34.6481 33.9431 33.8612 34.7156 32.89 34.7156C31.9194 34.7156 31.1319 33.9431 31.1319 32.9869C31.1319 32.4869 31.35 32.0406 31.6937 31.725L30.3531 29.8394C30.0319 30.09 29.7381 30.3737 29.505 30.7087L30.5819 31.23C30.4275 31.4256 30.2894 31.6331 30.19 31.8644L29.2131 31.2056C28.9875 31.6562 28.8444 32.1519 28.8038 32.6775L29.9994 32.5994C29.9831 32.7275 29.9606 32.8538 29.9606 32.9869ZM14.1294 33.5269C14.105 33.75 14.1162 33.9738 14.0938 34.1919L25.5737 35.7581C25.602 35.7606 25.6304 35.7618 25.6588 35.7619C26.1588 35.7619 26.4338 35.3662 26.4338 34.9525C26.4338 34.9525 26.495 31.0038 27.0312 30.0331C27.3056 29.5363 28.7644 28.5819 28.7869 28.5669C28.7869 28.5669 32.5962 26.08 33.8556 25.235C34.3212 24.9231 33.4375 23.7638 32.8913 22.9919C31.8233 21.4854 30.2507 20.4117 28.4587 19.9656C28.6525 20.1206 28.8106 20.3113 28.9119 20.5331C29.6225 20.9888 29.9181 21.5281 30.0094 22.0344C30.1912 22.1981 30.3719 22.375 30.5469 22.5763C30.7919 22.8563 31.6087 24.0531 30.5469 24.0531C30.3394 24.0531 29.9306 24.0806 29.3837 24.1362C29.1942 24.3572 28.9587 24.5342 28.6937 24.6548C28.4286 24.7753 28.1405 24.8366 27.8494 24.8344C27.52 24.8344 27.1744 24.7587 26.8225 24.6112L26.5956 24.5163C24.5875 24.8444 22.2025 25.355 20.2931 26.07C20.1075 26.1394 19.9406 26.2069 19.7894 26.2725L20.7619 30.0931L21.2025 29.9844C21.5033 29.9098 21.8163 29.8978 22.1219 29.9494C22.0656 29.8819 22.1012 29.78 22.2612 29.6613L26.2725 26.6944C26.5481 26.4906 26.7744 26.5513 26.7744 26.83C26.7744 27.1088 26.55 27.5037 26.2762 27.71L23.6863 29.6569C23.4119 29.8631 22.9056 30.0319 22.5612 30.0319H22.4637C23.1388 30.255 23.6812 30.7913 23.8587 31.51L18.7569 32.7706C18.165 32.9162 17.5706 32.5756 17.43 32.0056L17.2381 31.2381C15.8844 31.0737 16.1381 29.8156 15.0187 29.8156C14.5869 29.8156 14.2069 29.88 13.875 29.9681C14.1419 30.8556 14.2494 32.3988 14.1294 33.5269ZM14.5362 27.8831L14.9438 27.7038L12.6625 26.5987C12.0353 26.5269 11.4129 26.4175 10.7987 26.2712L11.7375 26.8569C11.8619 26.7262 11.9575 26.6469 11.9575 26.6469L14.5362 27.8831ZM9.425 29.6581L9.115 30.2794L9.80812 29.9731C9.68375 29.8644 9.56313 29.7512 9.425 29.6581ZM4.17937 32.9869C4.17937 33.1194 4.20125 33.2456 4.21875 33.3737L3.02375 33.295C3.06199 33.7933 3.19455 34.2799 3.41438 34.7288L4.40063 34.0794C4.50355 34.3182 4.63877 34.5417 4.8025 34.7438L3.72562 35.2644C4.01367 35.6778 4.37582 36.0342 4.79375 36.3156L5.32375 35.2569C5.5225 35.4081 5.73375 35.5444 5.96812 35.6419L5.29937 36.6025C5.7685 36.8299 6.27636 36.9667 6.79625 37.0056L6.71688 35.8294C6.84625 35.8469 6.97562 35.8681 7.11 35.8681C7.23438 35.8681 7.35313 35.8475 7.4725 35.8325L7.38125 37.0075C7.90111 36.9743 8.41002 36.8433 8.88125 36.6213L8.22062 35.6506C8.46279 35.5503 8.69027 35.4176 8.89688 35.2562L9.42562 36.3156C9.84355 36.0342 10.2057 35.6778 10.4938 35.2644L9.41688 34.7431C9.58052 34.541 9.71573 34.3175 9.81875 34.0788L10.805 34.7281C11.0251 34.2794 11.1577 33.7928 11.1956 33.2944L10.535 33.3375L8.27063 34.275C7.94996 34.5576 7.5374 34.7138 7.11 34.7144C6.13937 34.7144 5.35188 33.9419 5.35188 32.9856C5.35188 32.12 5.99875 31.41 6.8425 31.2825L8.59188 30.5094C8.47375 30.4381 8.35 30.3731 8.22062 30.3206L8.88125 29.35C8.42315 29.1335 7.92905 29.0034 7.42375 28.9663L7.50313 30.1425C7.37375 30.1256 7.24438 30.1031 7.11 30.1031C6.97562 30.1031 6.84625 30.125 6.71688 30.1425L6.79625 28.9663C6.291 29.0037 5.79694 29.1338 5.33875 29.35L5.99937 30.3206C5.76375 30.4156 5.54875 30.5462 5.3475 30.6962L4.83 29.6325C4.39673 29.9176 4.02172 30.2827 3.725 30.7081L4.80187 31.2288C4.64812 31.4244 4.51 31.6325 4.41 31.8637L3.43312 31.205C3.2075 31.6556 3.06438 32.1513 3.02438 32.6769L4.21875 32.6C4.20187 32.7275 4.17937 32.8538 4.17937 32.9869Z" fill="#F9DD00"/>
</svg>
